Coordinates
version=1
nRows=17
nColumns=24
inDegrees=yes

Units are S.I. units (second, meters, Newtons, ...)
Angles are in degrees.

endheader
time	pelvis_tilt	pelvis_list	pelvis_rotation	pelvis_tx	pelvis_ty	pelvis_tz	hip_flexion_r	hip_adduction_r	hip_rotation_r	knee_angle_r	ankle_angle_r	subtalar_angle_r	mtp_angle_r	hip_flexion_l	hip_adduction_l	hip_rotation_l	knee_angle_l	ankle_angle_l	subtalar_angle_l	mtp_angle_l	lumbar_extension	lumbar_bending	lumbar_rotation
      3.04000000	     42.04049205	      1.27919133	     -0.48637199	     -0.82011153	      1.01841644	     -0.28778279	     17.33574210	     -8.20899694	      9.78227127	    -29.16220548	    -12.98232698	      9.89695608	      0.00000000	     18.43700491	    -13.82671675	     -0.82391313	    -61.64492717	    -22.35907077	     16.37413368	      0.00000000	    -33.84928802	     -9.63066668	      3.19968760
      3.05000000	     42.04067471	      1.28073044	     -0.48845563	     -0.82014697	      1.01842832	     -0.28779126	     17.33267010	     -8.18793563	      9.76222282	    -29.34119183	    -12.74986863	     10.03944154	      0.00000000	     18.44553567	    -13.82607665	     -0.81826858	    -61.62615309	    -22.37943974	     16.37762229	      0.00000000	    -33.86528711	     -9.62657111	      3.18987320
      3.06000000	     42.03655452	      1.28012349	     -0.48678557	     -0.82018548	      1.01844142	     -0.28778283	     17.32673335	     -8.15595397	      9.73910598	    -29.60529801	    -12.51323668	     10.19168114	      0.00000000	     18.45321720	    -13.82971895	     -0.81566875	    -61.59705970	    -22.39928245	     16.37977900	      0.00000000	    -33.87338636	     -9.62022787	      3.18397591
      3.07000000	     42.02912248	      1.27577018	     -0.48093644	     -0.82022292	      1.01846085	     -0.28775928	     17.31606795	     -8.11426505	      9.71736258	    -29.95338318	    -12.29008002	     10.36933199	      0.00000000	     18.45812003	    -13.83861254	     -0.81496867	    -61.55945270	    -22.42053258	     16.38018460	      0.00000000	    -33.87651608	     -9.61005617	      3.18208065
      3.08000000	     42.02018502	      1.26749123	     -0.47291844	     -0.82024362	      1.01849190	     -0.28772993	     17.29926016	     -8.06416511	      9.69796882	    -30.38180239	    -12.09174117	     10.58490237	      0.00000000	     18.45963219	    -13.85209764	     -0.81545888	    -61.51379286	    -22.44449702	     16.37787723	      0.00000000	    -33.87715098	     -9.59561799	      3.18437942
      3.09000000	     42.01154054	      1.25633018	     -0.46541365	     -0.82024718	      1.01853278	     -0.28770440	     17.27610049	     -8.00645870	      9.67806905	    -30.88541902	    -11.92172460	     10.84386843	      0.00000000	     18.45761605	    -13.86775805	     -0.81734642	    -61.45990756	    -22.47085393	     16.37102648	      0.00000000	    -33.87716686	     -9.57782430	      3.19133943
      3.10000000	     42.00413542	      1.24405464	     -0.45994328	     -0.82024281	      1.01857848	     -0.28768791	     17.24786135	     -7.94184470	      9.65248311	    -31.45972767	    -11.77728702	     11.14318244	      0.00000000	     18.45172094	    -13.88256644	     -0.82169722	    -61.39804978	    -22.49778628	     16.35727021	      0.00000000	    -33.87792523	     -9.55861781	      3.20364158
      3.11000000	     41.99763865	      1.23254279	     -0.45616949	     -0.82023521	      1.01862698	     -0.28767865	     17.21681846	     -7.87187108	      9.61598855	    -32.10310549	    -11.65272749	     11.47201833	      0.00000000	     18.44159338	    -13.89442902	     -0.82980336	    -61.32922958	    -22.52294257	     16.33460199	      0.00000000	    -33.88041815	     -9.54034298	      3.22189940
      3.12000000	     41.99073670	      1.22314801	     -0.45233783	     -0.82023117	      1.01868001	     -0.28766835	     17.18556555	     -7.79939125	      9.56515375	    -32.81767144	    -11.54238508	     11.81424497	      0.00000000	     18.42763363	    -13.90292666	     -0.84235689	    -61.25469101	    -22.54466207	     16.30248451	      0.00000000	    -33.88522067	     -9.52516766	      3.24633238
      3.13000000	     41.98229507	      1.21632130	     -0.44642481	     -0.82023696	      1.01873533	     -0.28764606	     17.15664351	     -7.72804014	      9.49896967	    -33.60808713	    -11.44200796	     12.15199963	      0.00000000	     18.41170352	    -13.90887939	     -0.85883981	    -61.17498022	    -22.56292324	     16.26273272	      0.00000000	    -33.89216462	     -9.51468203	      3.27653936
      3.14000000	     41.97192349	      1.21186720	     -0.43724669	     -0.82024259	      1.01878388	     -0.28761148	     17.13256704	     -7.66073016	      9.41811402	    -34.47896574	    -11.34841187	     12.46972865	      0.00000000	     18.39643457	    -13.91311771	     -0.87755500	    -61.08987864	    -22.57981088	     16.21978731	      0.00000000	    -33.89999303	     -9.50950141	      3.31139093
      3.15000000	     41.95898758	      1.20939560	     -0.42500533	     -0.82023199	      1.01882584	     -0.28758249	     17.11588686	     -7.59808169	      9.32346457	    -35.43235345	    -11.25837030	     12.75792264	      0.00000000	     18.38307674	    -13.91531485	     -0.89636866	    -60.99975285	    -22.59937076	     16.18015631	      0.00000000	    -33.90640004	     -9.50886505	      3.34904717
      3.16000000	     41.94223476	      1.20844845	     -0.41153748	     -0.82019848	      1.01888557	     -0.28757628	     17.10889621	     -7.53824376	      9.21504952	    -36.46654405	    -11.16799829	     13.01552746	      0.00000000	     18.37068316	    -13.91396146	     -0.91349938	    -60.90665630	    -22.62646592	     16.15092543	      0.00000000	    -33.90867018	     -9.51055699	      3.38709908
      3.17000000	     41.92112784	      1.20876613	     -0.40003472	     -0.82014520	      1.01899131	     -0.28759145	     17.11300139	     -7.47806198	      9.09228715	    -37.57673997	    -11.07342689	     13.24998578	      0.00000000	     18.35784134	    -13.90769149	     -0.92777427	    -60.81392621	    -22.66471255	     16.13762192	      0.00000000	    -33.90485424	     -9.51149960	      3.42285770
      3.18000000	     41.89658324	      1.21020048	     -0.39353176	     -0.82010156	      1.01913554	     -0.28761363	     17.12791720	     -7.41519759	      8.95555454	    -38.75741367	    -10.97261448	     13.47434193	      0.00000000	     18.34445560	    -13.89685398	     -0.93855288	    -60.72512047	    -22.71447152	     16.14221468	      0.00000000	    -33.89498020	     -9.50899650	      3.45386093
      3.19000000	     41.87090012	      1.21213078	     -0.39259758	     -0.82011582	      1.01926737	     -0.28763232	     17.15192365	     -7.35035518	      8.80803368	    -40.00467882	    -10.86716783	     13.70217134	      0.00000000	     18.33146690	    -13.88405158	     -0.94566004	    -60.64325989	    -22.77197781	     16.16212160	      0.00000000	    -33.88137530	     -9.50197502	      3.47844631
      3.20000000	     41.84836052	      1.21374846	     -0.39382771	     -0.82018185	      1.01934458	     -0.28765226	     17.18412621	     -7.28725430	      8.65596321	    -41.31633648	    -10.76268028	     13.94248263	      0.00000000	     18.31917499	    -13.87283197	     -0.94945131	    -60.57043823	    -22.83009486	     16.19075732	      0.00000000	    -33.86780507	     -9.49160299	      3.49603706
